<?xml version="1.0" encoding="UTF-8" standalone="no"?>
<!-- Created with Inkscape (http://www.inkscape.org/) -->

<svg
   xmlns:dc="http://purl.org/dc/elements/1.1/"
   xmlns:cc="http://creativecommons.org/ns#"
   xmlns:rdf="http://www.w3.org/1999/02/22-rdf-syntax-ns#"
   xmlns:svg="http://www.w3.org/2000/svg"
   xmlns="http://www.w3.org/2000/svg"
   xmlns:sodipodi="http://sodipodi.sourceforge.net/DTD/sodipodi-0.dtd"
   xmlns:inkscape="http://www.inkscape.org/namespaces/inkscape"
   version="1.1"
   id="svg2"
   inkscape:version="0.92pre1 unknown"
   xml:space="preserve"
   width="340.79568mm"
   height="130.07532mm"
   viewBox="0 0 1288.0466 491.62323"
   sodipodi:docname="meteoPI_box.svg"><metadata
     id="metadata8"><rdf:RDF><cc:Work
         rdf:about=""><dc:format>image/svg+xml</dc:format><dc:type
           rdf:resource="http://purl.org/dc/dcmitype/StillImage" /><dc:title></dc:title></cc:Work></rdf:RDF></metadata><defs
     id="defs6"><clipPath
       clipPathUnits="userSpaceOnUse"
       id="clipPath86"><path
         d="M 0,1296 H 2304 V 0 H 0 Z"
         id="path84"
         inkscape:connector-curvature="0" /></clipPath><clipPath
       clipPathUnits="userSpaceOnUse"
       id="clipPath4410"><path
         d="M 0,1296 H 2304 V 0 H 0 Z"
         id="path4408"
         inkscape:connector-curvature="0" /></clipPath></defs><sodipodi:namedview
     pagecolor="#ffffff"
     bordercolor="#666666"
     borderopacity="1"
     objecttolerance="10"
     gridtolerance="10"
     guidetolerance="10"
     inkscape:pageopacity="0"
     inkscape:pageshadow="2"
     inkscape:window-width="1920"
     inkscape:window-height="1020"
     inkscape:document-units="mm"
     id="namedview4"
     showgrid="false"
     inkscape:zoom="0.67396115"
     inkscape:cx="737.73651"
     inkscape:cy="157.26287"
     inkscape:window-x="0"
     inkscape:window-y="27"
     inkscape:window-maximized="1"
     inkscape:current-layer="g10"
     fit-margin-top="0"
     fit-margin-left="0"
     fit-margin-right="0"
     fit-margin-bottom="0"
     units="mm" /><g
     id="g10"
     inkscape:groupmode="layer"
     inkscape:label="meteoPI_expand"
     transform="matrix(1.3333333,0,0,-1.3333333,-89.333331,1658.0886)"><path
       d="m 451.949,1181.043 h 29.715 v -25.121 h -29.715 z"
       style="fill:none;stroke:#000000;stroke-width:0.75;stroke-linecap:butt;stroke-linejoin:miter;stroke-miterlimit:4.63157892;stroke-dasharray:none;stroke-opacity:1"
       id="path12"
       inkscape:connector-curvature="0" /><path
       d="m 772.023,1205.512 h 99.379 v -46.496 h -99.379 z"
       style="fill:none;stroke:#000000;stroke-width:0.75;stroke-linecap:butt;stroke-linejoin:miter;stroke-miterlimit:4.63157892;stroke-dasharray:none;stroke-opacity:1"
       id="path14"
       inkscape:connector-curvature="0" /><g
       id="g16"
       transform="translate(180.762,1138.9885)"
       style="stroke:#000000;stroke-width:0.75;stroke-miterlimit:4.63157892;stroke-dasharray:none;stroke-opacity:1"><path
         d="m 0,0 v 98.535 m 5.937,5.668 V 54.938 m 0,-11.34 V -5.668 M 11.871,0 v 98.535 m 5.937,5.668 V 54.938 m 0,-11.34 V -5.668 M 23.746,0 v 98.535 m 5.937,5.668 V 54.938 m 0,-11.34 V -5.668 M 35.621,0 v 98.535 m 5.937,5.668 V 54.938 m 0,-11.34 V -5.668 M 47.492,0 v 98.535 m 5.937,5.668 V 54.938 m 0,-11.34 V -5.668 M 59.367,0 v 98.535 m 5.937,5.668 V 54.938 m 0,-11.34 V -5.668 M 71.242,0 v 98.535"
         style="fill:none;stroke:#000000;stroke-width:0.75;stroke-linecap:butt;stroke-linejoin:miter;stroke-miterlimit:4.63157892;stroke-dasharray:none;stroke-opacity:1"
         id="path18"
         inkscape:connector-curvature="0" /></g><g
       id="g20"
       transform="translate(180.762,1243.1915)"
       style="stroke:#000000;stroke-width:0.75;stroke-miterlimit:4.63157892;stroke-dasharray:none;stroke-opacity:1"><path
         d="m 0,0 h 71.242 m 0,-109.871 H 0"
         style="fill:none;stroke:#000000;stroke-width:0.75;stroke-linecap:butt;stroke-linejoin:miter;stroke-miterlimit:4.63157892;stroke-dasharray:none;stroke-opacity:1"
         id="path22"
         inkscape:connector-curvature="0" /></g><g
       id="g24"
       transform="translate(365.387,1138.9885)"
       style="stroke:#000000;stroke-width:0.75;stroke-miterlimit:4.63157892;stroke-dasharray:none;stroke-opacity:1"><path
         d="m 0,0 v 98.535 m 5.937,5.668 V 54.938 m 0,-11.34 V -5.668 M 11.875,0 v 98.535 m 5.937,5.668 V 54.938 m 0,-11.34 V -5.668 M 23.75,0 v 98.535 m 5.937,5.668 V 54.938 m 0,-11.34 V -5.668 M 35.621,0 v 98.535 m 5.937,5.668 V 54.938 m 0,-11.34 V -5.668 M 47.496,0 v 98.535 m 5.937,5.668 V 54.938 m 0,-11.34 V -5.668 M 59.371,0 v 98.535 m 5.937,5.668 V 54.938 m 0,-11.34 V -5.668 M 71.242,0 v 98.535"
         style="fill:none;stroke:#000000;stroke-width:0.75;stroke-linecap:butt;stroke-linejoin:miter;stroke-miterlimit:4.63157892;stroke-dasharray:none;stroke-opacity:1"
         id="path26"
         inkscape:connector-curvature="0" /></g><g
       id="g28"
       transform="translate(365.387,1243.1915)"
       style="stroke:#000000;stroke-width:0.75;stroke-miterlimit:4.63157892;stroke-dasharray:none;stroke-opacity:1"><path
         d="m 0,0 h 71.242 m 0,-109.871 H 0"
         style="fill:none;stroke:#000000;stroke-width:0.75;stroke-linecap:butt;stroke-linejoin:miter;stroke-miterlimit:4.63157892;stroke-dasharray:none;stroke-opacity:1"
         id="path30"
         inkscape:connector-curvature="0" /></g><g
       id="g32"
       transform="translate(180.762,1243.1915)"
       style="stroke:#000000;stroke-width:0.75;stroke-miterlimit:4.63157892;stroke-dasharray:none;stroke-opacity:1"><path
         d="M 0,0 H -68.032 V -11.339 H -90.711 V 0 h -22.676 v -109.871 h 22.676 v 11.336 h 22.679 v -11.336 H 0"
         style="fill:none;stroke:#000000;stroke-width:0.75;stroke-linecap:butt;stroke-linejoin:miter;stroke-miterlimit:4.63157892;stroke-dasharray:none;stroke-opacity:1"
         id="path34"
         inkscape:connector-curvature="0" /></g><g
       id="g36"
       transform="translate(252.004,1243.1915)"
       style="stroke:#000000;stroke-width:0.75;stroke-miterlimit:4.63157892;stroke-dasharray:none;stroke-opacity:1"><path
         d="M 0,0 H 16.195 V -11.339 H 32.394 V 0 h 16.2 V -11.339 H 64.793 V 0 H 80.988 V -11.339 H 97.187 V 0 h 16.196"
         style="fill:none;stroke:#000000;stroke-width:0.75;stroke-linecap:butt;stroke-linejoin:miter;stroke-miterlimit:4.63157892;stroke-dasharray:none;stroke-opacity:1"
         id="path38"
         inkscape:connector-curvature="0" /></g><g
       id="g40"
       transform="translate(365.387,1133.3206)"
       style="stroke:#000000;stroke-width:0.75;stroke-miterlimit:4.63157892;stroke-dasharray:none;stroke-opacity:1"><path
         d="M 0,0 H -16.196 V 11.336 H -32.395 V 0 H -48.59 V 11.336 H -64.789 V 0 h -16.2 V 11.336 H -97.188 V 0 h -16.195"
         style="fill:none;stroke:#000000;stroke-width:0.75;stroke-linecap:butt;stroke-linejoin:miter;stroke-miterlimit:4.63157892;stroke-dasharray:none;stroke-opacity:1"
         id="path42"
         inkscape:connector-curvature="0" /></g><g
       id="g44"
       transform="translate(919.273,1138.9885)"
       style="stroke:#000000;stroke-width:0.75;stroke-miterlimit:4.63157892;stroke-dasharray:none;stroke-opacity:1"><path
         d="m 0,0 v 98.535 m -5.937,5.668 V 54.938 m 0,-11.34 V -5.668 M -11.875,0 v 98.535 m -5.937,5.668 V 54.938 m 0,-11.34 V -5.668 M -23.746,0 v 98.535 m -5.937,5.668 V 54.938 m 0,-11.34 V -5.668 M -35.621,0 v 98.535 m -5.937,5.668 V 54.938 m 0,-11.34 V -5.668 M -47.496,0 v 98.535 m -5.937,5.668 V 74.457 m 0,-71.406 V -5.668 M -59.367,0 v 98.535 m -5.937,-5.332 V 74.457 m 0,-71.582 V -5.668 M -71.242,0 v 98.535"
         style="fill:none;stroke:#000000;stroke-width:0.75;stroke-linecap:butt;stroke-linejoin:miter;stroke-miterlimit:4.63157892;stroke-dasharray:none;stroke-opacity:1"
         id="path46"
         inkscape:connector-curvature="0" /></g><g
       id="g48"
       transform="translate(919.273,1243.1915)"
       style="stroke:#000000;stroke-width:0.75;stroke-miterlimit:4.63157892;stroke-dasharray:none;stroke-opacity:1"><path
         d="m 0,0 h -71.242 m 0,-109.871 H 0"
         style="fill:none;stroke:#000000;stroke-width:0.75;stroke-linecap:butt;stroke-linejoin:miter;stroke-miterlimit:4.63157892;stroke-dasharray:none;stroke-opacity:1"
         id="path50"
         inkscape:connector-curvature="0" /></g><g
       id="g52"
       transform="translate(734.645,1138.9885)"
       style="stroke:#000000;stroke-width:0.75;stroke-miterlimit:4.63157892;stroke-dasharray:none;stroke-opacity:1"><path
         d="m 0,0 v 98.535 m -5.938,5.668 V 54.938 m 0,-11.34 V -5.668 M -11.872,0 v 98.535 m -5.937,5.668 V 54.938 m 0,-11.34 V -5.668 M -23.747,0 v 98.535 m -5.937,5.668 V 54.938 m 0,-11.34 V -5.668 M -35.622,0 v 98.535 m -5.937,5.668 V 54.938 m 0,-11.34 V -5.668 M -47.493,0 v 98.535 m -5.941,5.668 V 54.938 m 0,-11.34 V -5.668 M -59.368,0 v 98.535 m -5.937,5.668 V 54.938 m 0,-11.34 V -5.668 M -71.243,0 v 98.535"
         style="fill:none;stroke:#000000;stroke-width:0.75;stroke-linecap:butt;stroke-linejoin:miter;stroke-miterlimit:4.63157892;stroke-dasharray:none;stroke-opacity:1"
         id="path54"
         inkscape:connector-curvature="0" /></g><g
       id="g56"
       transform="translate(734.645,1243.1915)"
       style="stroke:#000000;stroke-width:0.75;stroke-miterlimit:4.63157892;stroke-dasharray:none;stroke-opacity:1"><path
         d="m 0,0 h -71.243 m 0,-109.871 H 0"
         style="fill:none;stroke:#000000;stroke-width:0.75;stroke-linecap:butt;stroke-linejoin:miter;stroke-miterlimit:4.63157892;stroke-dasharray:none;stroke-opacity:1"
         id="path58"
         inkscape:connector-curvature="0" /></g><g
       id="g60"
       transform="translate(919.273,1243.1915)"
       style="stroke:#000000;stroke-width:0.75;stroke-miterlimit:4.63157892;stroke-dasharray:none;stroke-opacity:1"><path
         d="M 0,0 H 68.032 V -11.339 H 90.707 V 0 h 22.68 v -109.871 h -22.68 v 11.336 H 68.032 v -11.336 H 0"
         style="fill:none;stroke:#000000;stroke-width:0.75;stroke-linecap:butt;stroke-linejoin:miter;stroke-miterlimit:4.63157892;stroke-dasharray:none;stroke-opacity:1"
         id="path62"
         inkscape:connector-curvature="0" /></g><g
       id="g64"
       transform="translate(848.031,1243.1915)"
       style="stroke:#000000;stroke-width:0.75;stroke-miterlimit:4.63157892;stroke-dasharray:none;stroke-opacity:1"><path
         d="M 0,0 H -16.199 V -11.339 H -32.398 V 0 h -16.195 v -11.339 h -16.2 V 0 H -80.992 V -11.339 H -97.187 V 0 h -16.199"
         style="fill:none;stroke:#000000;stroke-width:0.75;stroke-linecap:butt;stroke-linejoin:miter;stroke-miterlimit:4.63157892;stroke-dasharray:none;stroke-opacity:1"
         id="path66"
         inkscape:connector-curvature="0" /></g><g
       id="g68"
       transform="translate(734.645,1133.3206)"
       style="stroke:#000000;stroke-width:0.75;stroke-miterlimit:4.63157892;stroke-dasharray:none;stroke-opacity:1"><path
         d="M 0,0 H 16.199 V 11.336 H 32.394 V 0 h 16.199 v 11.336 h 16.2 V 0 H 80.988 V 11.336 H 97.187 V 0 h 16.199"
         style="fill:none;stroke:#000000;stroke-width:0.75;stroke-linecap:butt;stroke-linejoin:miter;stroke-miterlimit:4.63157892;stroke-dasharray:none;stroke-opacity:1"
         id="path70"
         inkscape:connector-curvature="0" /></g><g
       id="g72"
       transform="translate(436.629,1243.1915)"
       style="stroke:#000000;stroke-width:0.75;stroke-miterlimit:4.63157892;stroke-dasharray:none;stroke-opacity:1"><path
         d="M 0,0 H 20.617 V -11.339 H 41.234 V 0 H 61.848 V -11.339 H 82.465 V 0 h 20.617 v -11.339 h 20.613 V 0 h 20.617 v -11.339 h 20.614 V 0 h 20.617 V -11.339 H 206.16 V 0 h 20.613"
         style="fill:none;stroke:#000000;stroke-width:0.75;stroke-linecap:butt;stroke-linejoin:miter;stroke-miterlimit:4.63157892;stroke-dasharray:none;stroke-opacity:1"
         id="path74"
         inkscape:connector-curvature="0" /></g><g
       id="g76"
       transform="translate(663.402,1133.3206)"
       style="stroke:#000000;stroke-width:0.75;stroke-miterlimit:4.63157892;stroke-dasharray:none;stroke-opacity:1"><path
         d="M 0,0 H -20.613 V 11.336 H -41.23 V 0 H -61.847 V 11.336 H -82.461 V 0 h -20.617 v 11.336 h -20.617 V 0 h -20.613 v 11.336 h -20.617 V 0 h -20.614 v 11.336 h -20.617 V 0 h -20.617"
         style="fill:none;stroke:#000000;stroke-width:0.75;stroke-linecap:butt;stroke-linejoin:miter;stroke-miterlimit:4.63157892;stroke-dasharray:none;stroke-opacity:1"
         id="path78"
         inkscape:connector-curvature="0" /></g><g
       id="g88"
       transform="matrix(1.0193259,0,0,1.0193259,136.58895,1223.9201)"
       style="stroke:#000000;stroke-width:0.75;stroke-miterlimit:4.63157892;stroke-dasharray:none;stroke-opacity:1"><path
         d="m 0,0 h 3.502 c 2.895,0 5.242,-2.56 5.242,-5.718 v 0.001 c 0,-3.158 -2.347,-5.718 -5.242,-5.718 H 0 c -2.895,0 -5.242,2.56 -5.242,5.718 V -5.718 C -5.242,-2.56 -2.895,0 0,0 Z"
         style="fill:none;stroke:#000000;stroke-width:0.75;stroke-linecap:butt;stroke-linejoin:miter;stroke-miterlimit:4.63157892;stroke-dasharray:none;stroke-opacity:1"
         id="path90"
         inkscape:connector-curvature="0" /></g><g
       id="g5446"
       transform="translate(-120.96323,3.3384711)"><g
         style="stroke:#000000;stroke-width:0.75;stroke-miterlimit:4.63157892;stroke-dasharray:none;stroke-opacity:1"
         transform="translate(383.367,1055.7975)"
         id="g92"><path
           inkscape:connector-curvature="0"
           id="path94"
           style="fill:none;stroke:#000000;stroke-width:0.75;stroke-linecap:butt;stroke-linejoin:miter;stroke-miterlimit:4.63157892;stroke-dasharray:none;stroke-opacity:1"
           d="m 0,0 c 0,-2.082 -1.687,-3.77 -3.769,-3.77 -2.086,0 -3.774,1.688 -3.774,3.77 0,2.082 1.688,3.773 3.774,3.773 C -1.687,3.773 0,2.082 0,0 Z" /></g><g
         style="stroke:#000000;stroke-width:0.75;stroke-miterlimit:4.63157892;stroke-dasharray:none;stroke-opacity:1"
         transform="translate(383.418,917.1845)"
         id="g96"><path
           inkscape:connector-curvature="0"
           id="path98"
           style="fill:none;stroke:#000000;stroke-width:0.75;stroke-linecap:butt;stroke-linejoin:miter;stroke-miterlimit:4.63157892;stroke-dasharray:none;stroke-opacity:1"
           d="m 0,0 c 0,-2.082 -1.688,-3.77 -3.77,-3.77 -2.082,0 -3.773,1.688 -3.773,3.77 0,2.086 1.691,3.773 3.773,3.773 C -1.688,3.773 0,2.086 0,0 Z" /></g><g
         style="stroke:#000000;stroke-width:0.75;stroke-miterlimit:4.63157892;stroke-dasharray:none;stroke-opacity:1"
         transform="translate(547.145,917.2155)"
         id="g100"><path
           inkscape:connector-curvature="0"
           id="path102"
           style="fill:none;stroke:#000000;stroke-width:0.75;stroke-linecap:butt;stroke-linejoin:miter;stroke-miterlimit:4.63157892;stroke-dasharray:none;stroke-opacity:1"
           d="m 0,0 c 0,-2.082 -1.692,-3.77 -3.774,-3.77 -2.082,0 -3.769,1.688 -3.769,3.77 0,2.082 1.687,3.773 3.769,3.773 C -1.692,3.773 0,2.082 0,0 Z" /></g><g
         style="stroke:#000000;stroke-width:0.75;stroke-miterlimit:4.63157892;stroke-dasharray:none;stroke-opacity:1"
         transform="translate(547.234,1055.6956)"
         id="g104"><path
           inkscape:connector-curvature="0"
           id="path106"
           style="fill:none;stroke:#000000;stroke-width:0.75;stroke-linecap:butt;stroke-linejoin:miter;stroke-miterlimit:4.63157892;stroke-dasharray:none;stroke-opacity:1"
           d="m 0,0 c 0,-2.082 -1.687,-3.769 -3.769,-3.769 -2.082,0 -3.77,1.687 -3.77,3.769 0,2.082 1.688,3.774 3.77,3.774 C -1.687,3.774 0,2.082 0,0 Z" /></g><g
         style="stroke:#000000;stroke-width:0.75;stroke-miterlimit:4.63157892;stroke-dasharray:none;stroke-opacity:1"
         transform="translate(465.195,985.2705)"
         id="g108"><path
           inkscape:connector-curvature="0"
           id="path110"
           style="fill:none;stroke:#000000;stroke-width:0.75;stroke-linecap:butt;stroke-linejoin:miter;stroke-miterlimit:4.63157892;stroke-dasharray:none;stroke-opacity:1"
           d="m 0,0 c 0,-1.555 -1.261,-2.817 -2.816,-2.817 -1.555,0 -2.817,1.262 -2.817,2.817 0,1.558 1.262,2.82 2.817,2.82 C -1.261,2.82 0,1.558 0,0 Z" /></g><g
         style="stroke:#000000;stroke-width:0.75;stroke-miterlimit:4.63157892;stroke-dasharray:none;stroke-opacity:1"
         transform="translate(506.473,985.2705)"
         id="g112"><path
           inkscape:connector-curvature="0"
           id="path114"
           style="fill:none;stroke:#000000;stroke-width:0.75;stroke-linecap:butt;stroke-linejoin:miter;stroke-miterlimit:4.63157892;stroke-dasharray:none;stroke-opacity:1"
           d="m 0,0 c 0,-1.555 -1.262,-2.817 -2.817,-2.817 -1.554,0 -2.816,1.262 -2.816,2.817 0,1.558 1.262,2.82 2.816,2.82 C -1.262,2.82 0,1.558 0,0 Z" /></g><g
         style="stroke:#000000;stroke-width:0.75;stroke-miterlimit:4.63157892;stroke-dasharray:none;stroke-opacity:1"
         transform="translate(596.402,1087.3206)"
         id="g116"><path
           inkscape:connector-curvature="0"
           id="path118"
           style="fill:none;stroke:#000000;stroke-width:0.75;stroke-linecap:butt;stroke-linejoin:miter;stroke-miterlimit:4.63157892;stroke-dasharray:none;stroke-opacity:1"
           d="M 0,0 H -20.613 V 11.336 H -41.23 V 0 H -61.847 V 11.336 H -82.461 V 0 h -20.617 v 11.336 h -20.617 V 0 h -20.613 v 11.336 h -20.617 V 0 h -20.614 v 11.336 h -20.617 V 0 h -20.617 m 0,0 c -25.047,0 -45.352,-20.308 -45.352,-45.355" /></g><g
         style="stroke:#000000;stroke-width:0.75;stroke-miterlimit:4.63157892;stroke-dasharray:none;stroke-opacity:1"
         transform="translate(324.277,928.5785)"
         id="g120"><path
           inkscape:connector-curvature="0"
           id="path122"
           style="fill:none;stroke:#000000;stroke-width:0.75;stroke-linecap:butt;stroke-linejoin:miter;stroke-miterlimit:4.63157892;stroke-dasharray:none;stroke-opacity:1"
           d="m 0,0 c 0,-25.047 20.305,-45.355 45.352,-45.355 h 68.035 v -11.336 h 22.676 v 11.336 h 45.355 v -11.336 h 22.676 v 11.336 h 68.031 c 25.051,0 45.356,20.308 45.356,45.355" /></g><g
         style="stroke:#000000;stroke-width:0.75;stroke-miterlimit:4.63157892;stroke-dasharray:none;stroke-opacity:1"
         transform="translate(324.277,1041.9655)"
         id="g124"><path
           inkscape:connector-curvature="0"
           id="path126"
           style="fill:none;stroke:#000000;stroke-width:0.75;stroke-linecap:butt;stroke-linejoin:miter;stroke-miterlimit:4.63157892;stroke-dasharray:none;stroke-opacity:1"
           d="m 0,0 v -16.199 h -11.339 v -16.2 H 0 V -48.594 H -11.339 V -64.793 H 0 v -16.195 h -11.339 v -16.2 H 0 v -16.199" /></g><g
         style="stroke:#000000;stroke-width:0.75;stroke-miterlimit:4.63157892;stroke-dasharray:none;stroke-opacity:1"
         transform="translate(641.758,928.5785)"
         id="g128"><path
           inkscape:connector-curvature="0"
           id="path130"
           style="fill:none;stroke:#000000;stroke-width:0.75;stroke-linecap:butt;stroke-linejoin:miter;stroke-miterlimit:4.63157892;stroke-dasharray:none;stroke-opacity:1"
           d="m 0,0 v 16.199 h 11.34 v 16.2 H 0 V 48.594 H 11.34 V 64.793 H 0 v 16.195 h 11.34 v 16.2 H 0 v 16.199" /></g><g
         style="stroke:#000000;stroke-width:0.75;stroke-miterlimit:4.63157892;stroke-dasharray:none;stroke-opacity:1"
         transform="translate(641.758,1041.9655)"
         id="g132"><path
           inkscape:connector-curvature="0"
           id="path134"
           style="fill:none;stroke:#000000;stroke-width:0.75;stroke-linecap:butt;stroke-linejoin:miter;stroke-miterlimit:4.63157892;stroke-dasharray:none;stroke-opacity:1"
           d="M 0,0 C 0,25.047 -20.305,45.355 -45.356,45.355" /></g><g
         style="stroke:#000000;stroke-width:0.75;stroke-miterlimit:4.63157892;stroke-dasharray:none;stroke-opacity:1"
         transform="translate(435.0771,989.0226)"
         id="g136"><path
           inkscape:connector-curvature="0"
           id="path138"
           style="fill:none;stroke:#000000;stroke-width:0.75;stroke-linecap:butt;stroke-linejoin:miter;stroke-miterlimit:4.63157892;stroke-dasharray:none;stroke-opacity:1"
           d="m 0,0 c 5.38,0 9.742,-4.362 9.742,-9.742 0,-5.38 -4.362,-9.741 -9.742,-9.741 -5.38,0 -9.742,4.361 -9.742,9.741 C -9.742,-4.362 -5.38,0 0,0 Z" /></g><g
         style="stroke:#000000;stroke-width:0.75;stroke-miterlimit:4.63157892;stroke-dasharray:none;stroke-opacity:1"
         transform="translate(435.0771,1001.0047)"
         id="g140"><path
           inkscape:connector-curvature="0"
           id="path142"
           style="fill:none;stroke:#000000;stroke-width:0.75;stroke-linecap:butt;stroke-linejoin:miter;stroke-miterlimit:4.63157892;stroke-dasharray:none;stroke-opacity:1"
           d="m 0,0 c 3.038,0 5.501,-6.759 5.501,-15.097 0,-8.338 -2.463,-15.097 -5.501,-15.097 -3.038,0 -5.501,6.759 -5.501,15.097 C -5.501,-6.759 -3.038,0 0,0 Z" /></g><g
         style="stroke:#000000;stroke-width:0.75;stroke-miterlimit:4.63157892;stroke-dasharray:none;stroke-opacity:1"
         transform="translate(530.9539,989.0226)"
         id="g144"><path
           inkscape:connector-curvature="0"
           id="path146"
           style="fill:none;stroke:#000000;stroke-width:0.75;stroke-linecap:butt;stroke-linejoin:miter;stroke-miterlimit:4.63157892;stroke-dasharray:none;stroke-opacity:1"
           d="m 0,0 c 5.38,0 9.742,-4.362 9.742,-9.742 0,-5.38 -4.362,-9.741 -9.742,-9.741 -5.38,0 -9.742,4.361 -9.742,9.741 C -9.742,-4.362 -5.38,0 0,0 Z" /></g><g
         style="stroke:#000000;stroke-width:0.75;stroke-miterlimit:4.63157892;stroke-dasharray:none;stroke-opacity:1"
         transform="translate(530.9539,1001.0047)"
         id="g148"><path
           inkscape:connector-curvature="0"
           id="path150"
           style="fill:none;stroke:#000000;stroke-width:0.75;stroke-linecap:butt;stroke-linejoin:miter;stroke-miterlimit:4.63157892;stroke-dasharray:none;stroke-opacity:1"
           d="m 0,0 c 3.038,0 5.501,-6.759 5.501,-15.097 0,-8.338 -2.463,-15.097 -5.501,-15.097 -3.038,0 -5.501,6.759 -5.501,15.097 C -5.501,-6.759 -3.038,0 0,0 Z" /></g></g><g
       id="g5349"
       transform="translate(-373.10227,318.56243)"><path
         inkscape:connector-curvature="0"
         id="path4402"
         style="fill:none;stroke:#000000;stroke-width:0.75;stroke-linecap:butt;stroke-linejoin:miter;stroke-miterlimit:7;stroke-dasharray:none;stroke-opacity:1"
         d="m 1002.9555,744.14609 h 216.25 v -148.219 h -216.25 z" /><g
         style="stroke:#000000;stroke-width:0.75;stroke-miterlimit:7;stroke-dasharray:none;stroke-opacity:1"
         id="g4404"
         transform="translate(564.0645,-474.19086)"><g
           style="stroke:#000000;stroke-width:0.75;stroke-miterlimit:7;stroke-dasharray:none;stroke-opacity:1"
           clip-path="url(#clipPath4410)"
           id="g4406"><g
             style="stroke:#000000;stroke-width:0.75;stroke-miterlimit:7;stroke-dasharray:none;stroke-opacity:1"
             transform="translate(447.367,922.7975)"
             id="g4412" /><g
             style="stroke:#000000;stroke-width:0.75;stroke-miterlimit:7;stroke-dasharray:none;stroke-opacity:1"
             transform="translate(447.418,784.1845)"
             id="g4416" /><g
             style="stroke:#000000;stroke-width:0.75;stroke-miterlimit:7;stroke-dasharray:none;stroke-opacity:1"
             transform="translate(611.145,784.2155)"
             id="g4420" /><g
             style="stroke:#000000;stroke-width:0.75;stroke-miterlimit:7;stroke-dasharray:none;stroke-opacity:1"
             transform="translate(611.234,922.6955)"
             id="g4424" /><g
             style="stroke:#000000;stroke-width:0.75;stroke-miterlimit:7;stroke-dasharray:none;stroke-opacity:1"
             transform="translate(529.195,852.2705)"
             id="g4430" /><g
             style="stroke:#000000;stroke-width:0.75;stroke-miterlimit:7;stroke-dasharray:none;stroke-opacity:1"
             transform="translate(570.473,852.2705)"
             id="g4434" /><g
             style="stroke:#000000;stroke-width:0.75;stroke-miterlimit:7;stroke-dasharray:none;stroke-opacity:1"
             transform="translate(177.762,959.9885)"
             id="g4440" /><g
             style="stroke:#000000;stroke-width:0.75;stroke-miterlimit:7;stroke-dasharray:none;stroke-opacity:1"
             transform="translate(177.762,1042.1915)"
             id="g4444" /><g
             style="stroke:#000000;stroke-width:0.75;stroke-miterlimit:7;stroke-dasharray:none;stroke-opacity:1"
             transform="translate(362.387,959.9885)"
             id="g4448" /><g
             style="stroke:#000000;stroke-width:0.75;stroke-miterlimit:7;stroke-dasharray:none;stroke-opacity:1"
             transform="translate(362.387,1042.1915)"
             id="g4452" /><g
             style="stroke:#000000;stroke-width:0.75;stroke-miterlimit:7;stroke-dasharray:none;stroke-opacity:1"
             transform="translate(177.762,1042.1915)"
             id="g4456" /><g
             style="stroke:#000000;stroke-width:0.75;stroke-miterlimit:7;stroke-dasharray:none;stroke-opacity:1"
             transform="translate(249.004,1042.1915)"
             id="g4460" /><g
             style="stroke:#000000;stroke-width:0.75;stroke-miterlimit:7;stroke-dasharray:none;stroke-opacity:1"
             transform="translate(362.387,954.3205)"
             id="g4464" /><g
             style="stroke:#000000;stroke-width:0.75;stroke-miterlimit:7;stroke-dasharray:none;stroke-opacity:1"
             transform="translate(916.273,959.9885)"
             id="g4468" /><g
             style="stroke:#000000;stroke-width:0.75;stroke-miterlimit:7;stroke-dasharray:none;stroke-opacity:1"
             transform="translate(916.273,1042.1915)"
             id="g4472" /><g
             style="stroke:#000000;stroke-width:0.75;stroke-miterlimit:7;stroke-dasharray:none;stroke-opacity:1"
             transform="translate(731.645,959.9885)"
             id="g4476" /><g
             style="stroke:#000000;stroke-width:0.75;stroke-miterlimit:7;stroke-dasharray:none;stroke-opacity:1"
             transform="translate(731.645,1042.1915)"
             id="g4480" /><g
             style="stroke:#000000;stroke-width:0.75;stroke-miterlimit:7;stroke-dasharray:none;stroke-opacity:1"
             transform="translate(916.273,1042.1915)"
             id="g4484" /><g
             style="stroke:#000000;stroke-width:0.75;stroke-miterlimit:7;stroke-dasharray:none;stroke-opacity:1"
             transform="translate(845.031,1042.1915)"
             id="g4488" /><g
             style="stroke:#000000;stroke-width:0.75;stroke-miterlimit:7;stroke-dasharray:none;stroke-opacity:1"
             transform="translate(731.645,954.3205)"
             id="g4492" /><g
             style="stroke:#000000;stroke-width:0.75;stroke-miterlimit:7;stroke-dasharray:none;stroke-opacity:1"
             transform="translate(433.629,1042.1915)"
             id="g4496"><path
               inkscape:connector-curvature="0"
               id="path4498"
               style="fill:none;stroke:#000000;stroke-width:0.75;stroke-linecap:butt;stroke-linejoin:miter;stroke-miterlimit:7;stroke-dasharray:none;stroke-opacity:1"
               d="M 0,0 H 20.617 V -11.339 H 41.234 V 0 H 61.848 V -11.339 H 82.465 V 0 h 20.617 v -11.339 h 20.613 V 0 h 20.617 v -11.339 h 20.614 V 0 h 20.617 V -11.339 H 206.16 V 0 h 20.613 m 0,0 c 25.051,0 45.356,20.305 45.356,45.356" /></g><g
             style="stroke:#000000;stroke-width:0.75;stroke-miterlimit:7;stroke-dasharray:none;stroke-opacity:1"
             transform="translate(705.758,1200.9344)"
             id="g4500"><path
               inkscape:connector-curvature="0"
               id="path4502"
               style="fill:none;stroke:#000000;stroke-width:0.75;stroke-linecap:butt;stroke-linejoin:miter;stroke-miterlimit:7;stroke-dasharray:none;stroke-opacity:1"
               d="m 0,0 c 0,25.046 -20.305,45.351 -45.356,45.351 h -68.031 v 11.34 h -22.676 v -11.34 h -45.355 v 11.34 h -22.676 v -11.34 h -68.035 c -25.047,0 -45.352,-20.305 -45.352,-45.351" /></g><g
             style="stroke:#000000;stroke-width:0.75;stroke-miterlimit:7;stroke-dasharray:none;stroke-opacity:1"
             transform="translate(705.758,1087.5475)"
             id="g4504"><path
               inkscape:connector-curvature="0"
               id="path4506"
               style="fill:none;stroke:#000000;stroke-width:0.75;stroke-linecap:butt;stroke-linejoin:miter;stroke-miterlimit:7;stroke-dasharray:none;stroke-opacity:1"
               d="M 0,0 V 16.195 H 11.34 V 32.394 H 0 v 16.2 H 11.34 V 64.793 H 0 V 80.992 H 11.34 V 97.187 H 0 v 16.2" /></g><g
             style="stroke:#000000;stroke-width:0.75;stroke-miterlimit:7;stroke-dasharray:none;stroke-opacity:1"
             transform="translate(388.277,1200.9344)"
             id="g4508"><path
               inkscape:connector-curvature="0"
               id="path4510"
               style="fill:none;stroke:#000000;stroke-width:0.75;stroke-linecap:butt;stroke-linejoin:miter;stroke-miterlimit:7;stroke-dasharray:none;stroke-opacity:1"
               d="M 0,0 V -16.2 H -11.339 V -32.395 H 0 V -48.594 H -11.339 V -64.793 H 0 v -16.2 H -11.339 V -97.192 H 0 v -16.195" /></g><g
             style="stroke:#000000;stroke-width:0.75;stroke-miterlimit:7;stroke-dasharray:none;stroke-opacity:1"
             transform="translate(388.277,1087.5475)"
             id="g4512"><path
               inkscape:connector-curvature="0"
               id="path4514"
               style="fill:none;stroke:#000000;stroke-width:0.75;stroke-linecap:butt;stroke-linejoin:miter;stroke-miterlimit:7;stroke-dasharray:none;stroke-opacity:1"
               d="M 0,0 C 0,-25.051 20.305,-45.356 45.352,-45.356" /></g><g
             style="stroke:#000000;stroke-width:0.75;stroke-miterlimit:7;stroke-dasharray:none;stroke-opacity:1"
             transform="translate(660.402,954.3205)"
             id="g4516" /><g
             style="stroke:#000000;stroke-width:0.75;stroke-miterlimit:7;stroke-dasharray:none;stroke-opacity:1"
             transform="translate(388.277,795.5785)"
             id="g4520" /><g
             style="stroke:#000000;stroke-width:0.75;stroke-miterlimit:7;stroke-dasharray:none;stroke-opacity:1"
             transform="translate(388.277,908.9655)"
             id="g4524" /><g
             style="stroke:#000000;stroke-width:0.75;stroke-miterlimit:7;stroke-dasharray:none;stroke-opacity:1"
             transform="translate(705.758,795.5785)"
             id="g4528" /><g
             style="stroke:#000000;stroke-width:0.75;stroke-miterlimit:7;stroke-dasharray:none;stroke-opacity:1"
             transform="translate(705.758,908.9655)"
             id="g4532" /></g></g></g></g></svg>